<svg xmlns="http://www.w3.org/2000/svg" viewBox="1124 3203 301 234.14">
    <defs>
        <style>
            .cls-1{fill:#fff}.cls-2{fill:#b1d382}
        </style>
    </defs>
    <g id="Group_46" data-name="Group 46" transform="translate(0 -2455)">
        <g id="Group_34" data-name="Group 34" transform="translate(1124 5658)">
            <path id="Path_30" d="M301 129.667l-.4-.462-3.61-1.387-3.008-1.156-6.618-1.849c-1-9.245-4.412-16.642-10.428-22.42 2.206-.462 4.612-.693 7.42-1.156h2.206l.4-.462c5.013-.925 7.42-1.849 7.42-2.542v-.463c-1.4-5.547-3.008-8.552-4.813-8.552l1.2-5.547-1.6-3V80.2l1.2-1.849V77.2l-.8-.925.2-.462v-.463l-.4-.462-3.609-1.388-3.008-1.156-.6-.231c.6-.231 1-.693 1-.925v-5.546l-.4-.462v-.462l-3.209-5.547V47.152l-3.209-3.7c0-.925.8-1.387 2.607-1.387v-1.154l-1-1.849V38.6c2.406-3 3.61-5.316 3.61-7.165l-.4-8.552.4-5.547-.4-4.16-4.813-1.618h-2.005l-1.6 1.156h-3.209l-1.4-1.156h-2.206l-1 1.156-1.6-1.156h-.4l-1.4 1.156h-2.807l-.6-.462-18.248-3-1.4.462L225.4 8.552C223.394 7.4 218.38 6.7 210.76 6.7h-5.815l-1.6-1.156h-1.4l-1.4 1.156-3.61-1.618-4.813.462-3.222-1.152h-4.211l.6 2.311-1.2 1.849-4.01-1.852.4-1.618-1.6-1.849h-1.4l-1 1.156v.462l3.81 5.547h.4l.4-.693 1.6 1.849h1l2.607-.462 1 1.618v.693l-.4.462-2.607-.462a5.884 5.884 0 0 1-3.61 1.618h-.4l-2.206-1.618c0-1.618-1.6-3.929-4.813-6.7 0-2.774-.8-4.16-2.206-4.16l-1 1.156 1.4 2.542-1.4 6.01c-1 0-2.406-.925-3.81-3h-1l-7.821 3.7h-.4l-2.206-1.618h-.4l-3.61.231v-.693l-.4-.462-4.813.462-7.219-3h-.6c-1.8 3.929-3.209 6.01-4.011 6.7h-.4l-1.6-1.156h-1.4l-.6.462c0 1.156-.4 1.618-1 1.618h-.4c-.6 0-1-.693-1.6-2.311a6.267 6.267 0 0 1 4.211-3.7l2.206.693h1V8.552l-2.607-3v-.698l.8-1.849 2.206 1.849h1.2L137.766 3h6.417c1.8 2.08 3.61 3 5.214 3L152 3l5.214 2.542 3.209-1.156c1 0 1.6 1.156 1.6 3.7h.4c1 0 1.6-1.618 2.206-4.854h-.6l-.4-.462h-.4l-2.607.462-2.206-1.618H151L138.368.462l-1.6.693L123.528 0l-2.206.462-.4-.462-1.6.462L109.491 0h-4.211L92.646 1.387 91.042 0l-1.2 1.387v.462L91.042 3h8.422l1 1.387v1.16l-1 1.156H83.221l-1.6-1.156L82.219 3l-1.4-1.618h-2.21L77 3a7.255 7.255 0 0 1-4.813-1.618h-.4C70.588 2.542 68.582 3 65.574 3h-8.422l-1.6 1.387L53.943 3l-1.4 1.387h-1.6l-7.828 1.16-2.206-.462c-6.016 1.615-11.03 2.542-15.04 2.542-1.6 0-2.406 1.387-2.607 4.16l.8 3.929v2.544l-1.6 1.849h-8.826l-.6.462C6.016 22.189 1.8 23.576 0 24.731 0 27.274 1 31.2 3.209 36.75v7.859l.4.462c4.011 4.623 8.021 7.4 12.032 7.859.8 0 1.4.693 1.8 2.311a8.459 8.459 0 0 0-2.206 3.467v3.7l1.2 1.618v3.467l-1.2 1.849v.458l.4 3-.4 3.467v3.7l2.005 12.944c0 11.788 3.409 21.264 10.428 28.2v.925l-1.2 1.849v.462l.4 3-.4 2.311-7.42-2.542c-1.4 0-2.005.462-2.005 1.618v7.165l1.6 2.311v1.849l-2.607.462.8 5.085-1.6 2.311v.462l.4.462 3.61 1.387 3.008 1.156 6.618 1.849a49.362 49.362 0 0 0 1.8 8.321h-.6c-4.011 0-6.818.925-8.021 3-2.206 0-4.011 1.618-5.013 4.623v3.7l1.2 1.618v3.467l-1.2 1.849v.462l.4 2.311a17.9 17.9 0 0 0-5.615 5.085l2.607 3c.8 3.929 2.206 6.934 3.81 8.552l-.4 3.7 1.4 2.542v1.387l-3.209 6.7v1.156l5.214 10.863c0 4.623.6 7.165 1.6 7.627l7.42-.462c.4.231.6.693 1 .925h.4l.4-.462c0-.231 0-.231.2-.462h1l1.4-1.156h.4l1.6 1.156h4.211l1.4-1.156h6.454l26.67-1.368h2.206v-1.387L76 226.975h-1l-1.6 1.387h-3.213l-1.6-1.387h-.4l-1 1.387-1.2-1.387 1.2-1.156h1.4l3.209.462c2.607-.693 3.81-1.387 3.81-2.542v-.231c.6 0 1.4-.231 2.005-.231a5.807 5.807 0 0 0 1.6 2.311c2.607 0 3.81.462 3.81 1.156l-.8 2.08v1.156h5.214l1.2-1.156v-.462l-.6-.462-2.005.462-1.8-2.08v-.462l1-1.156 1.2 1.156 5.214-.462h1.4l1.6 1.156-1 1.849 3.61.462 1-1.156v-1.387l-.4-.462 3.209-1.156 1.6.462 3.61-.462 2.206.462c6.818 0 11.029-.925 12.634-2.542l1.6 1.156h1.4l2.206-1.618h1l1.6 1.156h6.818l1.4-1.156h8.623l1.4 1.387 3.008-1.387h2.607l6.016-.462h.6l4.412.462 4.813-.462h.8l6.016.462h.4l7.821-.462v.462h1a1.869 1.869 0 0 1 .4-.925l1.8-.231 3.008.462h.4v-1.387l2.206-.462a.935.935 0 0 0 .2.693l-.2.231 1 1.156h1.8a12.217 12.217 0 0 0 3.209.462l.8-.462h3.209l1.8 1.618h.4l.4-.462v-.693h.4v-.462h1.2l7.62.462 3.008-.462 9.687 1.848h.4l1.4-1.387 1.6 1.387h1a61.888 61.888 0 0 1 15.441 2.311c-1.4 1.618-2.607 2.311-3.61 2.311v1.618l1.4.693h.6l.4-.693 13.035 1.387h2.206l1.4 1.156h7.821c3.008 0 5.013.693 6.417 1.849h2.607l2.005-2.542v-.462l-2.005-3v-.462l2.005-2.542h4.813l1.6-1.849v-3c-2.005-2.542-3.209-4.854-3.209-6.7v-3l3.409-3.236c.8-.231 1-.693 1-1.618v-6.934l-1.6-2.311v-1.849l2.607-.462-.4-5.316 1.6-2.311v-.462l-.4-.462-3.61-1.387-1.8-.693a8.978 8.978 0 0 0 1.4-5.316v-1.618l-.4-.693.4-.462v-1.156c0-.693-1.8-1.387-5.214-2.08a5.7 5.7 0 0 0 2.807-2.08c2.206 0 4.011-1.618 5.013-4.623v-3.7l-1.2-1.618v-3.486l1.2-1.849v-.461l-.4-3 .4-2.311 7.42 2.542c1.4 0 2.005-.462 2.005-1.618v-7.165l-1.6-2.311v-1.849l2.607-.462-.4-5.316 1.6-2.311v-.925zm-10.227 4.854l1-1.849 1.2 1.156v1.387h-2.005v-.693zm-5.013 63.562c0 .693-1 1.387-3.209 1.849h-.4l-.4-.462-2.005.231-1-.462v-1.156c.2-1.156 1.6-1.849 4.211-2.542h.2c.597.693 1.6 1.617 2.602 2.542zM224.6 219.81l1 1.387c-2.206-.231-4.412-.231-6.618-.462a27.251 27.251 0 0 1 5.618-.925zm-11.43.462zm-86.029-.925l-.6.231-2.005-.462-.4.462-2.005-.462h-.6c-.6-.231-1-.462-1.6-.693h13.636c-.6.693-2.005 1.156-4.612 1.156zm-38.7-.925zM37.5 187.451l-1.4-1.618v-.462l.2-.231a6.411 6.411 0 0 1 1.2 2.311zM25.869 189.3l1.4-1.618h1.2c.2 1.156.2 2.08.4 3l-1.6 1.156h-1l-.2-.231V189.3zM69.585 17.566v-1.155h1.6l-1 1.156zM112.5 31.434v-.693l1-1.156 1.2 1.156v.693l-.6.693h-.8zm8.422-19.415l1.6-1.618 1.6 1.156-1.4 1.849zm-70.588 207.1v.462h-2.206v-.462l.6-.693h1zM34.291 75.35v-.462l.4-.462 1.4 1.618v.462l-.4.693zM264.3 96.846a6.8 6.8 0 0 0-2.406-1.618 6.844 6.844 0 0 0 2.005-2.311h1.4l1.2 1.156v2.542l-.6.462zM141.977 218.423l-.6.231h-4.211v-.231zm115.507 3.467l-.4.231-1-.462a3.436 3.436 0 0 0 1.4.231zm9.024-16.179l-1 1.156a6 6 0 0 0-2.005-1.156l.4-.462h2.607zm2.807-8.09c-2.005-1.618-3.61-3-5.013-3.929l.6-.693h.4l4.211 1.849h.4l.4-.462c3.81.462 5.815.925 5.815 1.618v1.387l-.4.462-2.607-.462a3.161 3.161 0 0 1-1.4.925zM276.334 84.6h.6a17.5 17.5 0 0 0 2.005 4.623l-3.81.462-1.4-.462c.801-2.778 1.803-4.396 2.605-4.623zm4.412 4.854zM120.921 15.717l-1 1.387h-.6c-3.409-.462-5.214-1.387-5.214-2.542v-.693l2.005-2.311 4.813 3.7v.462zm-13.235 16.411l.6-.693h1.2l.6.693zM28.275 89.449h.8v6.01h-.6c-1.2 0-2.206-2.08-3.209-6.472a10.639 10.639 0 0 0 3.009.462zM38.3 133.365h-.4c-1 0-1.6-.231-2.206-.231l1.4-1.618h1a5.148 5.148 0 0 0 .206 1.849zm-1 3.467c.2.231.4.231.6.462-.6.462-1.4.925-2.005 1.387-.2-.693-.2-1.618-.4-2.311zm9.425 85.289h3.209l1.4 1.387h-1.8l-3.008.462-1.6-.462h-.4zm9.225-3l-1 1.156h-1.6l-1.4-1.156.6-.693h3.008zm35.093 1.156l.4-.462c1 0 1.4-.462 1.4-1.156v-.231h5.615l-.4 1.618-5.214.462-1.8-.231zm10.628-.231a3.835 3.835 0 0 1-.6-1.618h3.008l.2 1.618zm10.227.462l-2.406-.462-.2-.462.6-1.156h3.208a3.725 3.725 0 0 1-.4 1.618c0 .226-.4.454-.8.454zm36.9-1.387l-2.206-.693h2.608zm117.713-5.085l1 .231c0 .462-.6.925-1.6 1.387a12.241 12.241 0 0 1 .597-1.623zm1.6-6.934h.4l1.2 1.156v.462h-1.6zm9.826-62.175h.4c1 0 1.6.231 2.206.231l-1.4 1.618h-1.2a2.917 2.917 0 0 0-.004-1.854zm1-3.467a11.421 11.421 0 0 1-1.6-1.387c-.4-2.774-1-4.392-1.6-4.854v-3.467l2.406.231v-1.623c1 2.08 1.8 6.01 2.607 11.557zm-1-46c-4.211 0-6.217-.925-6.217-2.542v-.462L279.142 95c-.2.231-.6.462-.6.693h-.6zm10.628-4.392c-.4 0-.6.231-1 .231V89.68l1 .693zM264.5 38.6l6.217-.462 1.2 1.156v1.386l-2.206 2.311h-3.81l-4.813-.462v-4.392zm-50.932-27.043l1.6 1.849-1 1.156h-.6l-1.4-1.156zm-10.428.462l1.6-2.542 2.206 1.849h.4l1.6-1.156h1l1 1.156-1 1.849a5.207 5.207 0 0 0-4.211 1.618h-5.815l-2.607.462-1.4-.462h-4.203l-2.21-2.543v-.231l2.206-3a24.657 24.657 0 0 1 11.434 3zM187.3 7.4l.6-.693 1.4 1.849v1.152h-.8l-1.2-1.156zm0 14.33l1.2-1.156 1.4 1.849-1 1.156h-.4l-1.2-1.156zm-37.5 6.01h1.6l1 1.387v.462l-.4.462-2.206-.462v-1.853zm-2.607 4.392l-.6.231.2-.231zm-3.61-6.7h1l1.6 1.618v1.38l-.6.462-2.005-2.542zm-16.444 6.01v.693h-1.6l.6-.693zM106.282 3l2.005-.462a10.549 10.549 0 0 1 6.818 2.542h.4l.4-.462 3.008.462 2.206-1.849h6.417c.6 0 1.2 1.156 1.4 3.7v.693l-3.61-.693-3.209.693-2.206-.693-4.211.693-2.2-1.383-1 1.387c-3.61 0-5.815-1.156-6.818-3.7V3zm-6.818 10.868l2.607-3.7c2.406 0 3.61 1.618 3.61 4.623 0 .925-1.8 1.618-5.214 1.849l-1-1.387zm-5.615 1.156h.4l.4.462-1 1.387h-.6l-.4-.462zm-3.81-1.618l1.2 1.156v.462l-1.2 1.387-1-1.387zm-1 18.029l.4.462-.2.231h-1.6l.6-.693zm-3.211-16.873l1 1.156V17.1l-1.6.462h-.4l-.6-.693zM76 4.854h.4L78 6.01 76.8 7.4h-1l-1.2-1.39zm-1.2 11.557h3.209v1.156H74.8zM66.376 6.01l.4-.462 1.6.462 1.8-.462h.4l.4.462-.8 1.387h-3.198l-.4-.693V6.01zm-16.042.69h2.206l2.607.693v1.159l-.4.462-4.211-.462V6.7zM17.847 26.581l.4-.462 2.607.462 2.607-1.849c1 0 1.4.462 1.4 1.387v3l-.8 1.156h-1.6l-4.612-3zm3.008 109.789c0-.693 1-1.387 3.209-1.849h.4l.4.462 1.8-.231 1.2 6.934c-1.995-.925-4.201-2.774-7.009-5.316zm4.612 7.4l-1 1.849-1.2-1.156V143.3h2.005v.462zm46.524 77.43a10.523 10.523 0 0 0-6.016-2.08l-2.206 2.542h-.4l-1-1.387a4.892 4.892 0 0 0-.4-1.849h21.252a20.949 20.949 0 0 0-5.214 2.08H76.8zm156.616 0l.8-.925 4.011 1.156a32.194 32.194 0 0 1-4.81-.231zm7.42-.693l.2-.231a.207.207 0 0 1-.2.224zm38.3 5.316l-5.214.462-1.2-1.156-2.607.462h-.4l-.2-2.774.2-.693.4.462 6.417 1.849h2.607v1.387zm17.847-82.053h-.4l-.4-.462-1.8.231-1.2-6.934a36.984 36.984 0 0 1 7.019 5.547c-.008.458-1.011 1.148-3.216 1.614z" class="cls-1" data-name="Path 30"/>
            <path id="Path_31" d="M116.6 98.7l-.4.693 1 1.156h3.81v-.693l-1.2-1.156z" class="cls-1" data-name="Path 31" transform="translate(116.819 129.43)"/>
            <path id="Rectangle_7" d="M0 0h4.011v1.618H0z" class="cls-1" data-name="Rectangle 7" transform="translate(122.526 228.13)"/>
            <path id="Path_32" d="M54.6 99.393l1 1.156h1V98.7H55z" class="cls-1" data-name="Path 32" transform="translate(54.891 129.43)"/>
            <path id="Path_33" d="M66.3 98.2v1.849l2.607 1.156h1v-1.849L66.9 98.2z" class="cls-1" data-name="Path 33" transform="translate(66.653 128.775)"/>
            <path id="Path_34" d="M45.209 2.911V1.756L44.206.6H43l-1 1.156v.462l2.206 1.849z" class="cls-1" data-name="Path 34" transform="translate(42.224 .787)"/>
            <path id="Rectangle_8" d="M0 0h3.008v1.618H0z" class="cls-1" data-name="Rectangle 8" transform="translate(102.673 228.13)"/>
            <path id="Path_35" d="M57.2 99.393l1 1.156h1V98.7h-1.6z" class="cls-1" data-name="Path 35" transform="translate(57.505 129.43)"/>
            <path id="Path_36" d="M97.9 99.287l1 1.156 1.2-1.156V97.9h-1.2z" class="cls-1" data-name="Path 36" transform="translate(98.422 128.381)"/>
            <path id="Path_37" d="M108.8 98.2l-.4.693 1 1.156h.4l.6-.693-1-1.156z" class="cls-1" data-name="Path 37" transform="translate(108.978 128.775)"/>
            <path id="Path_38" d="M92.1 99.287l1.2 1.156 1-1.156-1-1.387z" class="cls-1" data-name="Path 38" transform="translate(92.591 128.381)"/>
            <path id="Path_39" d="M72.9 99.393v.462l.4.693 2.206-.693V98.7H73.3z" class="cls-1" data-name="Path 39" transform="translate(73.289 129.43)"/>
            <path id="Path_40" d="M70 98.2l-.6.693 1 1.156h.8l.4-.693-1.2-1.156z" class="cls-1" data-name="Path 40" transform="translate(69.77 128.775)"/>
            <path id="Path_41" d="M85.7 98.2l-.6.693 1 1.156h5.214l.6-.693-1-1.156z" class="cls-1" data-name="Path 41" transform="translate(85.554 128.775)"/>
        </g>
        <g id="Group_39" data-name="Group 39" transform="translate(1255 5705)">
            <path id="Path_43" d="M0 14.815L13.8 0l6.9 1.482 4.213 6.991 7.176 5.648-1.065 2.222 3.056 1.111 2.269 4.491 2.5 1.852-5.839 8.843-6.759-.972 1.667 3.843-3.009 6.62z" class="cls-2" data-name="Path 43"/>
        </g>
    </g>
</svg>
