<svg xmlns="http://www.w3.org/2000/svg" viewBox="587.48 5201 40.52 40.52">
    <defs>
        <style>
            .cls-1{fill:none;clip-rule:evenodd}.cls-2{clip-path:url(#clip-path)}.cls-3{fill:#fff}
        </style>
        <clipPath id="clip-path">
            <path id="path" d="M573.26-100.48a20.26 20.26 0 0 0 20.26-20.26A20.26 20.26 0 0 0 573.26-141 20.26 20.26 0 0 0 553-120.74a20.26 20.26 0 0 0 20.26 20.26zm8.243-9.958h-16.486c-.044-.007-.088-.016-.132-.021a2.229 2.229 0 0 1-1.87-1.7c-.024-.1-.039-.21-.057-.314v-16.531c.007-.039.015-.077.02-.115a2.222 2.222 0 0 1 1.718-1.868c.1-.022.2-.036.3-.054h16.531c.038.007.076.015.115.02a2.227 2.227 0 0 1 1.877 1.768c.018.09.03.181.044.271v16.482c-.015.092-.028.185-.046.276a2.229 2.229 0 0 1-1.693 1.727c-.107.026-.214.041-.324.059zm-16.316-12.25v9.203a.834.834 0 0 0 .818.816h14.505a.833.833 0 0 0 .821-.818v-9.199h-1.967a6.442 6.442 0 0 1 .254 2.711 6.3 6.3 0 0 1-.889 2.568 6.376 6.376 0 0 1-1.877 1.97 6.4 6.4 0 0 1-6.717.289 6.258 6.258 0 0 1-2.488-2.507 6.4 6.4 0 0 1-.5-5.033zm8.073-2.228a4.174 4.174 0 0 0-4.175 4.112 4.178 4.178 0 0 0 4.079 4.236 4.184 4.184 0 0 0 4.269-4.081 4.179 4.179 0 0 0-4.173-4.267zm6.261-.837c.339 0 .679.006 1.018 0a.826.826 0 0 0 .792-.822v-1.952a.832.832 0 0 0-.835-.838h-1.946a.834.834 0 0 0-.836.839v1.935a1.7 1.7 0 0 0 .049.287s.431.554.816.556z" class="cls-1" transform="translate(-553 141)"/>
        </clipPath>
    </defs>
    <g id="group" class="cls-2" transform="translate(587.48 5201)">
        <path id="path-2" d="M548-146h47.273v47.273H548z" class="cls-3" data-name="path" transform="translate(-551.377 142.623)"/>
    </g>
</svg>
