<svg xmlns="http://www.w3.org/2000/svg" viewBox="472 -2426.608 87.8 71.616">
    <defs>
        <style>
            .cls-1{fill:#fff}
        </style>
    </defs>
    <g id="Group_33" data-name="Group 33" transform="translate(472 -2426.608)">
        <g id="Group_1" data-name="Group 1">
            <path id="Path_1" d="M84.041 63.588l-6.5-.382L71.3 23.957 59.383 8.538 19.242 0l-6.308 13.635-6.69 1.975L0 27.27l7.646 7.582 14.081-20.325 8.6.637 6.308 7.71 9.621 5.543-.892 2.867 3.95.765 3.5 5.1 3.313 1.784-5.48 11.724h-8.276l2.676 4.333-2.676 14.651.319.255 2.74-9.748 12.042-9.494L65.563 61.8l10.131 9.812 11.087-3.882 1.019-9.558z" class="cls-1" data-name="Path 1"/>
        </g>
        <g id="Group_2" data-name="Group 2" transform="translate(11.66 31.157)">
            <path id="Path_2" d="M18.3 58.011l8.347-4.524-1.465-2.039.956-1.848 4.014.51 1.21-1.21 14.527 1.848 2.166 5.48-1.019 8.92L36.2 64.7l-4.588 6.563z" class="cls-1" data-name="Path 2" transform="translate(-18.3 -48.9)"/>
        </g>
    </g>
</svg>
