<?xml version="1.0" encoding="utf-8"?>
<!-- Generator: Adobe Illustrator 21.1.0, SVG Export Plug-In . SVG Version: 6.00 Build 0)  -->
<svg version="1.1" id="Layer_1" xmlns="http://www.w3.org/2000/svg" xmlns:xlink="http://www.w3.org/1999/xlink" x="0px" y="0px"
	 viewBox="0 0 258.8 233.9" style="enable-background:new 0 0 258.8 233.9;" xml:space="preserve">
<style type="text/css">
	.st0{fill:#FFFFFF;}
</style>
<path id="Path_30_1_" class="st0" d="M258.8,129.7l-0.3-0.5l-3.1-1.4l-2.6-1.2l-5.7-1.8c-0.8-9.2-3.8-16.6-9-22.4
	c1.9-0.5,4-0.7,6.4-1.2h1.9l0.3-0.5c4.3-0.9,6.4-1.8,6.4-2.5v-0.5c-1.2-5.5-2.6-8.6-4.2-8.6l1-5.5l-1.4-3v-0.5l1-1.8v-1.2l-0.7-0.9
	l0.2-0.5v-0.5l-0.3-0.5l-3.1-1.4l-2.6-1.2l-0.5-0.2c0.5-0.2,0.8-0.7,0.8-0.9v-5.5L243,65v-0.5l-2.8-5.5V47l-2.8-3.7
	c0-0.9,0.7-1.4,2.2-1.4v-1.2l-0.8-1.8v-0.5c2.1-3,3.1-5.3,3.1-7.2l-0.3-8.6l0.3-5.5l-0.3-4.2l-4.2-1.6h-1.7l-1.4,1.2h-2.8l-1.2-1.2
	h-1.9l-0.8,1.2l-1.4-1.2h-0.3l-1.2,1.2h-2.4l-0.5-0.5l-15.7-3l-1.2,0.5l-11.2-1.2c-1.7-1.2-6.1-1.9-12.6-1.9h-5l-1.4-1.2h-1.2
	l-1.2,1.2l-3.1-1.6L165,5.3l-2.8-1.2h-3.6l0.5,2.3l-1,1.8l-3.4-1.9l0.3-1.6l-1.6-1.5h-1.2l-0.8,1.2v0.5l3.3,5.5h0.3l0.3-0.7l1.4,1.8
	h0.8l2.2-0.5l0.8,1.6v0.7l-0.3,0.5l-2.2-0.5c-0.8,0.9-2,1.5-3.1,1.6h-0.3l-1.9-1.6c0-1.6-1.4-3.9-4.2-6.7c0-2.8-0.7-4.2-1.9-4.2
	l-0.8,1.2l1.2,2.5l-1.2,6c-0.8,0-2.1-0.9-3.3-3h-0.8l-6.7,3.7h-0.3l-1.9-1.6h-0.3l-3.1,0.2v-0.7l-0.3-0.5l-4.2,0.5l-6.2-3h-0.6
	c-1.6,3.9-2.8,6-3.4,6.7h-0.3l-1.4-1.2h-1.2l-0.5,0.5c0,1.2-0.3,1.6-0.8,1.6h-0.3c-0.5,0-0.8-0.7-1.4-2.3c0.6-1.8,2-3.2,3.6-3.7
	l1.9,0.7h0.8V8.4l-2.2-3V4.9l0.7-1.8l1.9,1.8h1l1.7-1.9h5.5c1.6,2.1,3.1,3,4.5,3l2.2-3l4.5,2.5l2.8-1.2c0.8,0,1.4,1.2,1.4,3.7h0.3
	c0.8,0,1.4-1.6,1.9-4.9h-0.5l-0.3-0.5h-0.3L138,3.1l-1.9-1.6h-6.4l-10.8-1.2L117.4,1l-11.3-1l-1.9,0.5L103.8,0l-1.4,0.5L94,0h-3.6
	L79.6,1.4L78.1,0l-1,1.4v0.5l1,1.2h7.2l0.8,1.4v1.2l-0.8,1.2h-14L70,5.5L70.5,3l-1.2-1.6h-1.9L66,3c-1.5,0.1-3-0.5-4.2-1.6h-0.3
	c-1,1.1-2.8,1.6-5.3,1.6H49l-1.4,1.4L46.2,3L45,4.4h-1.4l-6.7,1.1L35,5c-5.2,1.6-9.5,2.5-12.9,2.5c-1.4,0-2.1,1.4-2.2,4.2l0.7,3.9
	v2.5l-1.4,1.8h-7.5l-0.5,0.7c-6.1,1.6-9.7,3-11.2,4.2c0,2.5,0.8,6.5,2.8,12v7.9l0.3,0.5c3.4,4.6,6.9,7.4,10.3,7.9
	c0.7,0,1.2,0.7,1.6,2.3c-0.8,1-1.5,2.1-1.9,3.5v3.7l1,1.6v3.5l-1,1.8V70l0.3,3l-0.3,3.5V80l1.7,12.9c0,11.8,2.9,21.3,9,28.2v0.9
	l-1,1.8v0.5l0.3,3l-0.3,2.3l-6.4-2.5c-1.2,0-1.7,0.5-1.7,1.6v7.2l1.4,2.3v1.8l-2.2,0.5l0.7,5.1l-1.4,2.3v0.5l0.3,0.5l3.1,1.4
	l2.6,1.2l5.7,1.8c0.3,2.8,0.8,5.6,1.6,8.3H26c-3.4,0-5.8,0.9-6.9,3c-1.9,0-3.4,1.6-4.3,4.6v3.7l1,1.6v3.5l-1,1.8v0.5l0.3,2.3
	c-1.9,1.3-3.5,3-4.8,5.1l2.2,3c0.7,3.9,1.9,6.9,3.3,8.6l-0.3,3.7l1.2,2.5v1.4l-2.8,6.7v1.2l4.5,10.9c0,4.6,0.5,7.2,1.4,7.6l6.4-0.5
	c0.3,0.2,0.5,0.7,0.8,0.9h0.3l0.3-0.5c0-0.2,0-0.2,0.2-0.5h0.8l1.2-1.2h0.3l1.4,1.2h3.6l1.2-1.2h5.6l22.9-1.4h1.9v-1.4l-1.4-1.8
	h-0.8l-1.4,1.4h-2.8l-1.5-1.3h-0.3l-0.8,1.4l-1-1.4l1-1.2h1.2l2.8,0.5c2.2-0.7,3.3-1.4,3.3-2.5v-0.2c0.5,0,1.2-0.2,1.7-0.2
	c0.3,0.9,0.8,1.7,1.4,2.3c2.2,0,3.3,0.5,3.3,1.2l-0.7,2.1v1.2h4.5l1-1.2v-0.5l-0.5-0.5l-1.7,0.5l-1.6-2.1v-0.5l0.8-1.2l1,1.2
	l4.5-0.5h1.2l1.4,1.2l-0.8,1.8l3.1,0.5l0.8-1.2v-1.4l-0.3-0.5l2.8-1.2l1.4,0.5l3.1-0.5l1.9,0.5c5.8,0,9.5-0.9,10.8-2.5l1.4,1.2h1.2
	l1.9-1.6h0.8l1.4,1.2h5.8l1.2-1.2h7.4l1.2,1.4l2.6-1.4h2.2l5.2-0.5h0.5l3.8,0.5l4.2-0.5h0.7l5.2,0.5h0.3l6.7-0.5v0.5h0.8
	c0.1-0.3,0.2-0.7,0.3-0.9l1.6-0.2l2.6,0.5h0.3V220l1.9-0.5c0,0.2,0.1,0.5,0.2,0.7l-0.2,0.2l0.8,1.2h1.6c0.9,0.3,1.9,0.5,2.8,0.5
	l0.7-0.5h2.8l1.6,1.6h0.3l0.3-0.5V222h0.3v-0.5h1l6.6,0.5l2.6-0.5l8.3,1.8h0.3l1.2-1.4l1.4,1.4h0.8c4.5,0.1,8.9,0.9,13.3,2.3
	c-1.2,1.6-2.2,2.3-3.1,2.3v1.6l1.2,0.7h0.5l0.3-0.7l11.2,1.4h1.9l1.2,1.2h6.7c2.6,0,4.3,0.7,5.5,1.8h2.2l1.7-2.5v-0.5l-1.7-3v-0.5
	l1.7-2.5h4.2l1.4-1.8v-3c-1.7-2.5-2.8-4.9-2.8-6.7v-3l2.9-3.2c0.7-0.2,0.8-0.7,0.8-1.6v-6.9l-1.4-2.3v-1.8l2.2-0.5l-0.3-5.3l1.4-2.3
	V186l-0.3-0.5l-3.1-1.4l-1.6-0.7c0.8-1.6,1.3-3.4,1.2-5.3v-1.6l-0.3-0.7l0.3-0.5v-1.2c0-0.7-1.6-1.4-4.5-2.1c1-0.4,1.8-1.1,2.4-2.1
	c1.9,0,3.4-1.6,4.3-4.6v-3.7l-1-1.6v-3.5l1-1.8v-0.5l-0.3-3l0.3-2.3l6.4,2.5c1.2,0,1.7-0.5,1.7-1.6v-7.2l-1.4-2.3v-1.8l2.2-0.5
	l-0.3-5.3l1.4-2.3v-0.9L258.8,129.7z M250,134.5l0.8-1.8l1,1.2v1.4h-1.7L250,134.5L250,134.5z M245.7,198.1c0,0.7-0.8,1.4-2.8,1.8
	h-0.3l-0.3-0.5l-1.7,0.2l-0.8-0.5v-1.2c0.2-1.2,1.4-1.8,3.6-2.5h0.2C244,196.2,244.8,197.2,245.7,198.1L245.7,198.1z M193.1,219.8
	l0.8,1.4c-1.9-0.2-3.8-0.2-5.7-0.5C189.8,220.2,191.4,219.9,193.1,219.8L193.1,219.8z M109.2,219.3l-0.5,0.2L107,219l-0.3,0.5
	L105,219h-0.5c-0.5-0.2-0.8-0.5-1.4-0.7h11.7c-0.5,0.7-1.7,1.2-4,1.2L109.2,219.3z M32,187.5l-1.2-1.6v-0.5l0.2-0.2
	C31.5,185.8,31.9,186.6,32,187.5z M22,189.3l1.2-1.6h1c0.2,1.2,0.2,2.1,0.3,3l-1.4,1.2h-0.8l-0.2-0.2L22,189.3L22,189.3L22,189.3z
	 M59.7,17.6v-1.2h1.4l-0.8,1.2H59.7z M96.6,31.4v-0.7l0.8-1.2l1,1.2v0.7l-0.5,0.7h-0.7L96.6,31.4z M103.8,12l1.4-1.6l1.4,1.2
	l-1.2,1.8L103.8,12z M43.1,219.1v0.5h-1.9v-0.5l0.5-0.7h0.8L43.1,219.1z M29.3,75.3v-0.5l0.3-0.5l1.2,1.6v0.5l-0.3,0.7L29.3,75.3z
	 M227.2,96.8c-0.6-0.7-1.3-1.3-2.1-1.6c0.7-0.6,1.3-1.4,1.7-2.3h1.2l1,1.2v2.5l-0.5,0.5L227.2,96.8z M121.9,218.4l-0.5,0.2h-3.6
	v-0.2H121.9z M221.4,221.9l-0.3,0.2l-0.8-0.5C220.5,221.8,220.9,221.9,221.4,221.9z M229.1,205.7l-0.8,1.2c-0.5-0.5-1.1-0.9-1.7-1.2
	l0.3-0.5h2.2V205.7z M231.6,197.6c-1.7-1.6-3.1-3-4.3-3.9l0.5-0.7h0.3l3.6,1.8h0.3l0.3-0.5c3.3,0.5,5,0.9,5,1.6v1.4l-0.3,0.5
	l-2.2-0.5c-0.3,0.4-0.7,0.7-1.2,0.9L231.6,197.6z M237.6,84.6h0.5c0.4,1.6,1,3.2,1.7,4.6l-3.3,0.5l-1.2-0.5
	C236,86.4,236.9,84.8,237.6,84.6L237.6,84.6z M103.8,15.7l-0.8,1.4h-0.5c-2.9-0.5-4.5-1.4-4.5-2.5v-0.7l1.7-2.3l4.2,3.7L103.8,15.7
	L103.8,15.7z M92.4,32.1l0.5-0.7h1l0.5,0.7H92.4z M24.1,89.4h0.7v6h-0.5c-1,0-1.9-2.1-2.8-6.5C22.4,89.3,23.2,89.4,24.1,89.4z
	 M32.8,133.4h-0.4c-0.8,0-1.4-0.2-1.9-0.2l1.2-1.6h0.8C32.6,132.1,32.6,132.8,32.8,133.4z M31.9,136.8c0.2,0.2,0.3,0.2,0.5,0.5
	c-0.5,0.5-1.2,0.9-1.7,1.4c-0.2-0.7-0.2-1.6-0.3-2.3L31.9,136.8z M40,222.1h2.8l1.2,1.4h-1.6l-2.6,0.5l-1.4-0.5h-0.3L40,222.1z
	 M47.9,219.1l-0.8,1.2h-1.4l-1.2-1.2l0.5-0.7h2.6L47.9,219.1z M78.1,220.3l0.3-0.5c0.8,0,1.2-0.5,1.2-1.2v-0.2h4.8l-0.3,1.6
	l-4.5,0.5L78.1,220.3L78.1,220.3z M87.3,220c-0.3-0.5-0.4-1-0.5-1.6h2.6l0.2,1.6H87.3z M96.1,220.5L94,220l-0.2-0.5l0.5-1.2h2.8
	c0,0.6-0.1,1.1-0.3,1.6C96.8,220.3,96.4,220.5,96.1,220.5L96.1,220.5z M127.8,219.1l-1.9-0.7h2.2L127.8,219.1z M229.1,214l0.8,0.2
	c0,0.5-0.5,0.9-1.4,1.4C228.7,215.1,228.9,214.6,229.1,214L229.1,214z M230.5,207.1h0.3l1,1.2v0.5h-1.4L230.5,207.1L230.5,207.1z
	 M239,144.9h0.3c0.8,0,1.4,0.2,1.9,0.2l-1.2,1.6h-1C239.1,146.2,239.1,145.5,239,144.9L239,144.9z M239.8,141.5
	c-0.5-0.4-1-0.9-1.4-1.4c-0.3-2.8-0.8-4.4-1.4-4.9v-3.5l2.1,0.2v-1.6c0.8,2.1,1.6,6,2.2,11.6L239.8,141.5z M239,95.5
	c-3.6,0-5.3-0.9-5.3-2.5v-0.5l6.4,2.5c-0.2,0.2-0.5,0.5-0.5,0.7h-0.5L239,95.5z M248.1,91.1c-0.3,0-0.5,0.2-0.8,0.2v-1.6l0.8,0.7
	V91.1z M227.4,38.6l5.3-0.5l1,1.2v1.4l-1.9,2.3h-3.3l-4.2-0.5v-4.4L227.4,38.6z M183.6,11.6l1.4,1.8l-0.8,1.2h-0.5l-1.2-1.2
	L183.6,11.6z M174.6,12l1.4-2.5l1.9,1.8h0.3l1.4-1.2h0.8l0.8,1.2l-0.8,1.8c-1.3-0.1-2.7,0.5-3.6,1.6h-5l-2.2,0.5l-1.2-0.5h-3.6
	l-1.9-2.5V12l1.9-3C168.2,9.1,171.5,10.1,174.6,12z M161,7.4l0.5-0.7l1.2,1.8v1.2H162l-1-1.2V7.4z M161,21.7l1-1.2l1.2,1.8l-0.8,1.2
	h-0.3l-1-1.2L161,21.7C161.1,21.7,161,21.7,161,21.7z M128.7,27.7h1.4l0.8,1.4v0.5l-0.3,0.5l-1.9-0.5V27.7L128.7,27.7z M126.4,32.1
	l-0.5,0.2l0.2-0.2H126.4z M123.3,25.4h0.8l1.4,1.6v1.4l-0.5,0.5l-1.7-2.5C123.3,26.4,123.3,25.4,123.3,25.4z M109.2,31.4v0.7h-1.4
	l0.5-0.7C108.3,31.4,109.2,31.4,109.2,31.4z M91.3,3L93,2.5c2.1,0,4.2,0.9,5.8,2.5h0.3l0.3-0.5L102,5l1.9-1.8h5.5
	c0.5,0,1,1.2,1.2,3.7v0.7l-3.1-0.7l-2.8,0.7l-1.9-0.7l-3.6,0.7l-1.9-1.4l-0.8,1.4c-3.1,0-5-1.2-5.8-3.7V3H91.3z M85.4,13.9l2.2-3.7
	c2.1,0,3.1,1.6,3.1,4.6c0,0.9-1.6,1.6-4.5,1.8l-0.8-1.4C85.4,15.2,85.4,13.9,85.4,13.9z M80.5,15h0.3l0.3,0.5l-0.8,1.4h-0.5
	l-0.3-0.5L80.5,15z M77.3,13.4l1,1.2V15l-1,1.4L76.5,15L77.3,13.4z M76.4,31.4l0.3,0.5l-0.2,0.2h-1.4l0.5-0.7
	C75.6,31.4,76.4,31.4,76.4,31.4z M73.7,14.6l0.8,1.2v1.4l-1.4,0.5h-0.3L72.3,17L73.7,14.6z M65.2,4.9h0.3l1.4,1.2l-1,1.4h-0.8L64,6
	L65.2,4.9z M64.2,16.4H67v1.2h-2.8V16.4z M56.9,6l0.3-0.5L58.6,6l1.6-0.5h0.3L60.8,6l-0.7,1.4h-2.8l-0.4-0.7L56.9,6L56.9,6z
	 M43.1,6.7H45l2.2,0.7v1.2L46.8,9l-3.6-0.5L43.1,6.7L43.1,6.7z M15.1,26.6l0.3-0.5l2.2,0.5l2.2-1.8c0.8,0,1.2,0.5,1.2,1.4v3
	l-0.7,1.2h-1.4l-4-3L15.1,26.6z M17.7,136.4c0-0.7,0.8-1.4,2.8-1.8h0.3l0.3,0.5l1.6-0.2l1,6.9C22,140.8,20.1,138.9,17.7,136.4
	L17.7,136.4z M21.7,143.8l-0.8,1.8l-1-1.2v-1.2h1.7L21.7,143.8L21.7,143.8z M61.8,221.2c-1.5-1.3-3.3-2-5.2-2.1l-1.9,2.5h-0.3
	l-0.8-1.4c0-0.6-0.1-1.3-0.3-1.8h18.3c-1.6,0.5-3.1,1.2-4.5,2.1h-1L61.8,221.2z M196.5,221.2l0.7-0.9l3.4,1.2
	C199.2,221.5,197.9,221.4,196.5,221.2L196.5,221.2z M202.9,220.5l0.2-0.2C203.1,220.4,203,220.5,202.9,220.5L202.9,220.5
	L202.9,220.5z M235.8,225.8l-4.5,0.5l-1-1.2l-2.2,0.5h-0.3l-0.2-2.8l0.2-0.7l0.3,0.5l5.5,1.8h2.2V225.8L235.8,225.8z M251.2,143.8
	h-0.3l-0.3-0.5l-1.6,0.2l-1-6.9c2.2,1.6,4.2,3.4,6.1,5.5C254,142.6,253.1,143.3,251.2,143.8L251.2,143.8z"/>
</svg>
