<svg xmlns="http://www.w3.org/2000/svg" viewBox="482 5201 40.52 40.52">
    <defs>
        <style>
            .cls-1{fill:none;clip-rule:evenodd}.cls-2{clip-path:url(#clip-path)}.cls-3{fill:#fff}
        </style>
        <clipPath id="clip-path">
            <path id="path" d="M20.26-100.48a20.3 20.3 0 0 0 14.056-5.669 20.1 20.1 0 0 0 6.2-14.591A20.26 20.26 0 0 0 20.26-141 20.26 20.26 0 0 0 0-120.74a20.26 20.26 0 0 0 20.26 20.26zm2.814-28.173a4.1 4.1 0 0 0-2.759 4.12l.042.7-.708-.086a11.5 11.5 0 0 1-6.736-3.319l-.934-.93-.241.687a4.133 4.133 0 0 0 .877 4.235c.566.6.439.687-.538.329a1.665 1.665 0 0 0-.665-.157 5.132 5.132 0 0 0 .509 1.917 4.572 4.572 0 0 0 1.939 1.831l.693.329-.821.014c-.792 0-.821.014-.736.315a4.28 4.28 0 0 0 2.646 2.346l.877.3-.764.458a7.959 7.959 0 0 1-3.792 1.059 4.184 4.184 0 0 0-1.16.114 10.76 10.76 0 0 0 2.731 1.259 11.938 11.938 0 0 0 9.283-1.059 12.437 12.437 0 0 0 4.712-5.551 14.776 14.776 0 0 0 .962-4.292c0-.658.042-.744.835-1.531a9.338 9.338 0 0 0 .991-1.1c.142-.272.127-.272-.594-.029-1.2.429-1.373.372-.778-.272a4.163 4.163 0 0 0 .962-1.531c0-.043-.212.029-.453.157a7.885 7.885 0 0 1-1.245.486l-.764.243-.693-.472a5.76 5.76 0 0 0-1.2-.63 4.827 4.827 0 0 0-2.478.06z" class="cls-1" transform="translate(0 141)"/>
        </clipPath>
    </defs>
    <g id="group" class="cls-2" transform="translate(482 5201)">
        <path id="path-2" d="M-5-146h47.273v47.273H-5z" class="cls-3" data-name="path" transform="translate(1.623 142.623)"/>
    </g>
</svg>
