<svg xmlns="http://www.w3.org/2000/svg" viewBox="646 5198.814 42.825 42.825">
    <defs>
        <style>
            .cls-1{fill:#fff}.cls-2{fill:#b1d382}
        </style>
    </defs>
    <g id="Group_41" data-name="Group 41" transform="translate(646 5198.814)">
        <path id="Path_47" d="M35.389 0H7.442A7.442 7.442 0 0 0 0 7.442v27.94a7.442 7.442 0 0 0 7.442 7.442h27.94a7.442 7.442 0 0 0 7.442-7.442V7.442A7.432 7.432 0 0 0 35.389 0z" class="cls-1" data-name="Path 47"/>
        <g id="Group_40" data-name="Group 40" transform="translate(8.304 1.734)">
            <path id="Path_48" d="M134.069 25.414a2.946 2.946 0 0 1 2.124 2.526.982.982 0 0 1-.656 1.3 7.354 7.354 0 0 0-1.939 1.215c-.533.464-.8.471-1.434.13-.041-.02-.089-.048-.178-.089a.88.88 0 0 1-.061.109 9.034 9.034 0 0 0-2.048 6.2 5.639 5.639 0 0 0 2.3 4.411 4.452 4.452 0 0 0 1.57.724 1.418 1.418 0 0 1 1.058.908 2.565 2.565 0 0 0 .2.382 1.079 1.079 0 0 0 1.393.594 2.125 2.125 0 0 1 1.748.2 1.781 1.781 0 0 0 .628.2.93.93 0 0 0 1.024-.355 1.772 1.772 0 0 1 1.557-.765 5.774 5.774 0 0 0 5.2-4.131 7.966 7.966 0 0 0 .41-2.595c0-.109.02-.225.027-.335l.1-.02a2.334 2.334 0 0 1 .143.294 11.307 11.307 0 0 1 .451 2.82 25.4 25.4 0 0 1-1.092 8.159 17.927 17.927 0 0 1-1.618 3.974 4.548 4.548 0 0 1-3.694 2.253 1.464 1.464 0 0 1-1.775-1.652 15.041 15.041 0 0 1 .266-1.973 7.525 7.525 0 0 0 .075-2.622 2.918 2.918 0 0 0-.314-.853.662.662 0 0 0-1.12-.137 2.467 2.467 0 0 0-.655 1.25 8.171 8.171 0 0 0 .068 3.68 7.479 7.479 0 0 0 .662 1.925c.43.833.218 1.352-.7 1.564a5.679 5.679 0 0 1-5.865-1.734 11.457 11.457 0 0 1-1.8-2.847c-.444-.942-.86-1.9-1.29-2.84a.634.634 0 0 0-.061-.137c-.061-.075-.13-.143-.191-.212-.034.089-.1.178-.089.259.082.553.164 1.113.28 1.659.1.43.253.847.348 1.284a.786.786 0 0 1-.649 1.058 3.953 3.953 0 0 1-4.377-1.5 14.821 14.821 0 0 1-1.441-3.073 7.78 7.78 0 0 1-.526-3.462 8.979 8.979 0 0 0-.321-2.4 10.951 10.951 0 0 1 .99-7.094 9.561 9.561 0 0 1 4.233-4.035 1.668 1.668 0 0 1 .164-.068c.027-.007.061 0 .143.055-.075.068-.15.15-.232.212a8.477 8.477 0 0 0-3.066 3.817 8.787 8.787 0 0 0 .71 7.777 7.681 7.681 0 0 0 2.233 2.5.941.941 0 0 0 .171.116 1.861 1.861 0 0 0 .28.068 1.159 1.159 0 0 0-.007-.266c-.116-.5-.259-.99-.369-1.488a7.694 7.694 0 0 1 .055-2.24 17.4 17.4 0 0 0 .061-1.789 9.455 9.455 0 0 1 1.017-4.827 9.747 9.747 0 0 1 3.011-3.3c.089-.061.178-.13.259-.184-.157-.259-.321-.492-.444-.744a2.186 2.186 0 0 1 .124-2.27 3.333 3.333 0 0 1 2.226-1.55 1.176 1.176 0 0 0 .143-.048c.185.012.376.012.56.012zm1.762 18.8c0 .58.655 1.072 1.523 1.133.744.055 1.379-.287 1.441-.751-.984-.125-1.967-.255-2.964-.385z" class="cls-2" data-name="Path 48" transform="translate(-121.616 -25.4)"/>
            <path id="Path_49" d="M275 499.736c.246-.628.485-1.215.71-1.8a.346.346 0 0 0-.014-.219c-.048-.178-.116-.355-.164-.539a.541.541 0 0 1 .512-.717c.444-.02.888-.014 1.331 0a.544.544 0 0 1 .526.444c.266.881.546 1.762.819 2.636.014.041.034.075.061.15.341-.874.676-1.721 1-2.567a3.1 3.1 0 0 1 .157-.376.564.564 0 0 1 .642-.3.526.526 0 0 1 .382.567 1.33 1.33 0 0 1-.089.4q-1.127 2.9-2.267 5.783c-.157.389-.232.43-.676.423-.314 0-.389-.232-.464-.457-.4-1.195-.8-2.39-1.209-3.619-.253.635-.492 1.243-.737 1.85s-.478 1.208-.717 1.809c-.143.348-.253.417-.615.417-.314 0-.423-.212-.505-.457q-.953-2.837-1.9-5.674a2.464 2.464 0 0 1-.089-.321.531.531 0 0 1 .512-.669q.666-.021 1.331 0c.321.007.478.225.567.505.266.84.526 1.673.792 2.513a2.029 2.029 0 0 1 .104.218z" class="cls-2" data-name="Path 49" transform="translate(-261.442 -464.265)"/>
            <path id="Path_50" d="M131.021 499.563c.246-.628.478-1.195.69-1.768a.533.533 0 0 0-.007-.273c-.048-.2-.13-.389-.164-.587a.513.513 0 0 1 .5-.635c.457-.014.922-.014 1.379 0 .3.007.444.218.533.478.266.847.533 1.693.806 2.533.014.048.034.089.068.191.13-.328.239-.608.348-.888.259-.656.519-1.318.785-1.973a.558.558 0 0 1 .806-.335.57.57 0 0 1 .212.765c-.382.983-.765 1.973-1.154 2.957-.389 1-.778 2-1.174 3-.137.348-.218.389-.615.4-.307.007-.41-.2-.492-.43l-1.188-3.544a.27.27 0 0 0-.055-.082c-.246.615-.478 1.209-.71 1.8-.246.621-.492 1.236-.737 1.857-.137.335-.239.4-.594.4-.3.007-.423-.177-.505-.423-.649-1.939-1.3-3.878-1.946-5.824-.191-.567.041-.888.628-.888h1.024a.622.622 0 0 1 .7.512c.273.854.539 1.707.806 2.56.009.054.022.095.056.197z" class="cls-2" data-name="Path 50" transform="translate(-127.322 -464.085)"/>
            <path id="Path_51" d="M421.279 497.692v1.475c0 .041.007.082.014.157h1.762a.507.507 0 0 1 .567.492.5.5 0 0 1-.567.519c-.56.007-1.127 0-1.687.007a.433.433 0 0 0-.082.02 3.067 3.067 0 0 0-.014.259v2.458c0 .457-.178.635-.635.635h-1.127a.521.521 0 0 1-.58-.567 861.437 861.437 0 0 1 0-6.015.476.476 0 0 1 .539-.533h4.506a.585.585 0 0 1 .621.574.539.539 0 0 1-.608.512h-2.4c-.097.007-.188.007-.309.007z" class="cls-2" data-name="Path 51" transform="translate(-398.625 -464.426)"/>
            <path id="Path_52" d="M429.055 47.7a2.992 2.992 0 0 1 2.82 2.875 1.737 1.737 0 0 1-.123.621 3.278 3.278 0 0 1-1.345 1.6 1.086 1.086 0 0 1-1.591-.307 4.842 4.842 0 0 0-1.775-1.434.875.875 0 0 1-.539-1.086 2.879 2.879 0 0 1 2.076-2.212c.156-.03.322-.037.477-.057z" class="cls-2" data-name="Path 52" transform="translate(-405.657 -46.177)"/>
            <path id="Path_53" d="M392.446 181.478a9.986 9.986 0 0 1-.225 1.017 1.665 1.665 0 0 1-1.489 1.154.989.989 0 0 1-.976-.444 8.309 8.309 0 0 1-.526-.929c-.253-.492-.5-.983-.737-1.482a.387.387 0 0 1-.027-.287 8.971 8.971 0 0 1 .758-1.379 1.211 1.211 0 0 1 1.646-.348 2.741 2.741 0 0 1 1.5 2.185c.027.171.034.341.055.505a.071.071 0 0 0 .021.008z" class="cls-2" data-name="Path 53" transform="translate(-370.228 -168.143)"/>
            <path id="Path_54" d="M285.27 167.86a.579.579 0 0 1-.212.546c-.266.273-.478.6-.724.894a6.93 6.93 0 0 1-.737.806 1.364 1.364 0 0 1-2.089-.321 2.327 2.327 0 0 1-.157-2.253 3.011 3.011 0 0 1 1.83-1.782 1.317 1.317 0 0 1 1.687.628 3.145 3.145 0 0 1 .402 1.482z" class="cls-2" data-name="Path 54" transform="translate(-270.243 -156.075)"/>
            <path id="Path_55" d="M332.29 259.434a1.332 1.332 0 0 1-.259.28 1.03 1.03 0 0 1-.389.109 1.815 1.815 0 0 0-1.052.471c-.109.1-.212.157-.307-.014a1.717 1.717 0 0 0-1.106-.8.718.718 0 0 1-.212-.082.427.427 0 0 1-.082-.737 1.1 1.1 0 0 1 .533-.212 6.5 6.5 0 0 1 2.349.259.756.756 0 0 1 .525.726z" class="cls-2" data-name="Path 55" transform="translate(-314.566 -242.521)"/>
            <path id="Path_56" d="M468.811 455.119a1.106 1.106 0 1 1-1.1-1.12 1.116 1.116 0 0 1 1.1 1.12zm-1.1.922a.914.914 0 0 0 .929-.895.939.939 0 0 0-.908-.949.922.922 0 1 0-.02 1.844z" class="cls-2" data-name="Path 56" transform="translate(-443.044 -424.734)"/>
            <path id="Path_57" d="M183.312 417.7a1.1 1.1 0 1 1-.02-2.205 1.125 1.125 0 0 1 1.12 1.12 1.1 1.1 0 0 1-1.1 1.085zm.908-1.1a.9.9 0 0 0-.908-.908.922.922 0 0 0-.041 1.844.949.949 0 0 0 .949-.931z" class="cls-2" data-name="Path 57" transform="translate(-178.062 -388.863)"/>
            <path id="Path_58" d="M477.681 463.011c.089.143.164.273.239.4a.44.44 0 0 1-.061.055c-.143-.164-.294-.328-.437-.492a.587.587 0 0 1-.068.048c-.02.137-.041.273-.068.423-.15-.109-.184-.478-.109-1.011.355-.1.649-.048.717.123a.319.319 0 0 1-.213.454zm-.335-.464c.007.164-.089.348.164.328.089-.007.246-.116.239-.164-.034-.24-.225-.158-.403-.165z" class="cls-2" data-name="Path 58" transform="translate(-452.862 -432.551)"/>
            <path id="Path_59" d="M191.846 423.924c-.253-.137-.5-.457-.717-.068a.525.525 0 0 0 .027.451c.218.341.457.1.7-.089-.068.321-.239.444-.5.41a.523.523 0 0 1-.457-.553.5.5 0 0 1 .451-.553c.25-.035.415.078.496.402z" class="cls-2" data-name="Path 59" transform="translate(-186.167 -396.333)"/>
        </g>
    </g>
</svg>
